<?xml version="1.0" encoding="UTF-8" standalone="no"?>
<!-- Created with Inkscape (http://www.inkscape.org/) -->

<svg
        id="svg2"
        version="1.1"
        viewBox="0 0 499.99999 500.00001"
        sodipodi:docname="ampel.svg"
        inkscape:version="1.4.2 (ebf0e94, 2025-05-08)"
        xmlns:inkscape="http://www.inkscape.org/namespaces/inkscape"
        xmlns:sodipodi="http://sodipodi.sourceforge.net/DTD/sodipodi-0.dtd"
        xmlns="http://www.w3.org/2000/svg"
        xmlns:svg="http://www.w3.org/2000/svg"
        xmlns:rdf="http://www.w3.org/1999/02/22-rdf-syntax-ns#"
        xmlns:cc="http://creativecommons.org/ns#"
        xmlns:dc="http://purl.org/dc/elements/1.1/">
    <defs
            id="defs1"/>
    <sodipodi:namedview
            id="namedview1"
            pagecolor="#ffffff"
            bordercolor="#000000"
            borderopacity="0.25"
            inkscape:showpageshadow="2"
            inkscape:pageopacity="0.0"
            inkscape:pagecheckerboard="0"
            inkscape:deskcolor="#d1d1d1"
            inkscape:zoom="1.63"
            inkscape:cx="249.69325"
            inkscape:cy="250"
            inkscape:window-width="1920"
            inkscape:window-height="1017"
            inkscape:window-x="-8"
            inkscape:window-y="-8"
            inkscape:window-maximized="1"
            inkscape:current-layer="svg2"/>
    <title
            id="title3758">Trail Ampel Logo
    </title>
    <path
            id="path101"
            style="fill:#000000;fill-rule:evenodd;stroke-width:1.2937"
            d="m 250.70734,182.82029 -36.46811,35.48877 52.25513,30.03972 c 0.32601,22.96059 0.5123,42.38161 0.37388,59.70684 -0.14102,17.13894 1.39719,33.95186 -1.11905,42.70763 -2.70125,8.52289 -9.0352,8.42974 -14.34455,8.52289 -5.35721,-0.13972 -14.11168,-2.51495 -17.27736,-8.89548 -3.16827,-6.52025 -1.67793,-16.53349 -1.81636,-29.34112 -0.32601,-13.08707 -0.32601,-28.59594 0,-47.78539 -16.6745,-7.73115 -30.55202,-14.62399 -42.33633,-21.19081 -11.87617,-6.56682 -21.98255,-11.45701 -27.99049,-17.74439 -6.05581,-6.61339 -7.96273,-13.50623 -8.05717,-20.11962 -0.0931,-6.6134 2.23552,-11.55015 7.35857,-18.769 5.07648,-7.31199 13.04049,-15.08972 22.82216,-24.59065 9.73251,-9.7338 25.56869,-25.56869 34.9299,-32.41495 9.17492,-6.79968 13.83095,-8.3366 20.25805,-8.19688 6.47367,0.0931 12.66791,4.19159 18.02383,8.5229 5.07648,4.09844 7.26412,8.24345 12.8542,16.71977 5.49564,8.5229 12.06246,19.56075 19.88805,33.81215 14.99657,-1.35063 26.407,-1.35063 34.60389,0 7.96401,1.25747 12.8542,3.63271 13.97066,7.82429 1.07119,4.14502 0.23546,13.55281 -7.35856,16.71978 -7.82301,2.88754 -28.92067,1.44377 -38.65446,1.3972 -9.7351,0 -14.85685,0.55888 -19.51417,-1.3972 -4.75306,-2.14236 -5.58879,-5.77507 -9.17751,-10.89813 -3.81642,-5.2149 -8.05458,-11.92144 -13.2242,-20.11832 z"/>
    <path
            id="path103"
            style="fill:#000000;fill-rule:evenodd;stroke-width:1.2937"
            d="m 288.53512,84.356779 c 17.4546,0 31.62191,13.143992 31.62191,29.341121 0,16.19712 -14.16731,29.34111 -31.62191,29.34111 -17.45718,0 -31.62449,-13.14528 -31.62449,-29.34111 0,-16.195835 14.16601,-29.341121 31.62449,-29.341121"/>
    <path
            id="path105"
            style="fill:#dc3545;fill-rule:evenodd;stroke-width:1.2937;fill-opacity:1;stroke:none;stroke-opacity:1"
            d="m 134.00266,254.63357 c 48.84494,0 88.48908,36.78507 88.48908,82.10855 0,45.32349 -39.64544,82.10856 -88.48908,82.10856 -48.846232,0 -88.489081,-36.78507 -88.489081,-82.10856 0,-45.32348 39.642849,-82.10855 88.489081,-82.10855 z m 0,15.88146 c 39.40998,0 71.39671,29.67101 71.39671,66.22709 0,36.55609 -31.98673,66.2258 -71.39671,66.2258 -39.411278,0 -71.396717,-29.66971 -71.396717,-66.2258 0,-36.55608 31.985439,-66.22709 71.396717,-66.22709 z"/>
    <path
            id="path107"
            style="fill:#198754;fill-rule:evenodd;stroke-width:1.2937;fill-opacity:1"
            d="m 365.41971,254.63357 c 48.84494,0 88.48909,36.78507 88.48909,82.10855 0,45.32349 -39.64544,82.10856 -88.48908,82.10856 -48.84753,0 -88.48908,-36.78507 -88.48908,-82.10856 0,-45.32348 39.64155,-82.10855 88.48907,-82.10855 z m 0,15.88146 c 39.38411,0 71.35015,29.67101 71.35015,66.22709 0,36.55609 -31.96604,66.2258 -71.35015,66.2258 -39.38669,0 -71.35014,-29.66971 -71.35014,-66.2258 0,-36.55608 31.96345,-66.22709 71.35014,-66.22709 z"/>
    <metadata
            id="metadata1">
        <rdf:RDF>
            <cc:Work>
                <dc:format>image/svg+xml</dc:format>
                <dc:type
                        rdf:resource="http://purl.org/dc/dcmitype/StillImage"/>
                <cc:license
                        rdf:resource="http://creativecommons.org/licenses/publicdomain/"/>
                <dc:publisher>
                    <cc:Agent
                            rdf:about="http://openclipart.org/">
                        <dc:title>Openclipart</dc:title>
                    </cc:Agent>
                </dc:publisher>
                <dc:title>Logo for Trail Ampel</dc:title>
                <dc:date>2025-08-27T19:42:15</dc:date>
                <dc:description>Icon for MTB Trail List Website</dc:description>
                <dc:creator>
                    <cc:Agent>
                        <dc:title>Andreas Neumann</dc:title>
                    </cc:Agent>
                </dc:creator>
                <dc:subject>
                    <rdf:Bag>
                        <rdf:li>bike</rdf:li>
                        <rdf:li>icon</rdf:li>
                        <rdf:li>red</rdf:li>
                        <rdf:li>green</rdf:li>
                        <rdf:li>mtb</rdf:li>
                        <rdf:li>mountainbike</rdf:li>
                        <rdf:li>sports</rdf:li>
                        <rdf:li>transportation</rdf:li>
                    </rdf:Bag>
                </dc:subject>
            </cc:Work>
            <cc:License
                    rdf:about="http://creativecommons.org/licenses/publicdomain/">
                <cc:permits
                        rdf:resource="http://creativecommons.org/ns#Reproduction"/>
                <cc:permits
                        rdf:resource="http://creativecommons.org/ns#Distribution"/>
                <cc:permits
                        rdf:resource="http://creativecommons.org/ns#DerivativeWorks"/>
            </cc:License>
        </rdf:RDF>
    </metadata>
</svg>
